<svg width="10" height="13" viewBox="0 0 10 13" fill="none" xmlns="http://www.w3.org/2000/svg">
<path d="M9.50122 6.50005C9.49993 6.75534 9.44183 7.00715 9.33113 7.23719C9.22044 7.46724 9.05992 7.66976 8.86122 7.83005L3.76122 12.0401C3.45419 12.2861 3.08422 12.4409 2.69349 12.4868C2.30275 12.5328 1.90696 12.4681 1.55122 12.3001C1.24205 12.1638 0.978634 11.9414 0.792443 11.6594C0.606252 11.3775 0.505154 11.0479 0.501221 10.7101L0.501221 2.29005C0.505154 1.9522 0.606252 1.62262 0.792443 1.34067C0.978634 1.05872 1.24205 0.836333 1.55122 0.700053C1.90696 0.532021 2.30275 0.467299 2.69349 0.513268C3.08422 0.559237 3.45419 0.714046 3.76122 0.960052L8.86122 5.17005C9.05992 5.33035 9.22044 5.53287 9.33113 5.76291C9.44183 5.99296 9.49993 6.24476 9.50122 6.50005ZM2.50122 10.4101L7.32122 6.50005L2.50122 2.50005L2.50122 10.4101Z" fill="white"/>
</svg>
