<svg width="200" height="200" viewBox="0 0 200 200" fill="none" xmlns="http://www.w3.org/2000/svg">
<rect width="200" height="200" rx="100" fill="#BDBDBD"/>
<path d="M128.125 81.25C128.125 88.7092 125.162 95.8629 119.887 101.137C114.613 106.412 107.459 109.375 100 109.375C92.5408 109.375 85.3871 106.412 80.1126 101.137C74.8382 95.8629 71.875 88.7092 71.875 81.25C71.875 73.7908 74.8382 66.6371 80.1126 61.3626C85.3871 56.0882 92.5408 53.125 100 53.125C107.459 53.125 114.613 56.0882 119.887 61.3626C125.162 66.6371 128.125 73.7908 128.125 81.25Z" fill="white"/>
<path fill-rule="evenodd" clip-rule="evenodd" d="M25 100C25 80.1088 32.9018 61.0322 46.967 46.967C61.0322 32.9018 80.1088 25 100 25C119.891 25 138.968 32.9018 153.033 46.967C167.098 61.0322 175 80.1088 175 100C175 119.891 167.098 138.968 153.033 153.033C138.968 167.098 119.891 175 100 175C80.1088 175 61.0322 167.098 46.967 153.033C32.9018 138.968 25 119.891 25 100ZM100 34.375C87.6417 34.3757 75.5347 37.8659 65.0725 44.444C54.6104 51.0221 46.2183 60.4207 40.8622 71.5581C35.5061 82.6954 33.4036 95.1188 34.7969 107.398C36.1901 119.678 41.0224 131.314 48.7375 140.969C55.3938 130.244 70.0469 118.75 100 118.75C129.953 118.75 144.597 130.234 151.263 140.969C158.978 131.314 163.81 119.678 165.203 107.398C166.596 95.1188 164.494 82.6954 159.138 71.5581C153.782 60.4207 145.39 51.0221 134.927 44.444C124.465 37.8659 112.358 34.3757 100 34.375Z" fill="white"/>
</svg>
