<svg width="237" height="44" viewBox="0 0 237 44" fill="none" xmlns="http://www.w3.org/2000/svg">
<path d="M131.283 21.1821L131.268 14.1654L127.79 19.9723H126.913L123.435 14.2561V21.1821H121.575V10.5965H123.193L127.382 17.5981L131.525 10.5965H133.128L133.159 21.1821H131.283ZM139.508 21.2879C138.692 21.2879 137.956 21.1115 137.3 20.7586C136.645 20.4058 136.131 19.9168 135.758 19.2918C135.395 18.6567 135.214 17.9409 135.214 17.1444C135.214 16.348 135.395 15.6373 135.758 15.0122C136.131 14.3871 136.645 13.8982 137.3 13.5453C137.956 13.1925 138.692 13.0161 139.508 13.0161C140.335 13.0161 141.076 13.1925 141.731 13.5453C142.387 13.8982 142.896 14.3871 143.259 15.0122C143.632 15.6373 143.818 16.348 143.818 17.1444C143.818 17.9409 143.632 18.6567 143.259 19.2918C142.896 19.9168 142.387 20.4058 141.731 20.7586C141.076 21.1115 140.335 21.2879 139.508 21.2879ZM139.508 19.6698C140.204 19.6698 140.779 19.438 141.232 18.9742C141.686 18.5105 141.913 17.9005 141.913 17.1444C141.913 16.3883 141.686 15.7784 141.232 15.3146C140.779 14.8509 140.204 14.619 139.508 14.619C138.813 14.619 138.238 14.8509 137.784 15.3146C137.341 15.7784 137.119 16.3883 137.119 17.1444C137.119 17.9005 137.341 18.5105 137.784 18.9742C138.238 19.438 138.813 19.6698 139.508 19.6698ZM145.685 13.1068H147.576V18.4298L152.037 13.1068H153.761V21.1821H151.87V15.859L147.425 21.1821H145.685V13.1068ZM149.602 12.1541C148.786 12.1541 148.16 11.9676 147.727 11.5946C147.304 11.2115 147.087 10.657 147.077 9.93113H148.332C148.342 10.2941 148.453 10.5814 148.665 10.7931C148.886 11.0048 149.194 11.1107 149.587 11.1107C149.97 11.1107 150.273 11.0048 150.494 10.7931C150.726 10.5814 150.847 10.2941 150.857 9.93113H152.143C152.133 10.657 151.911 11.2115 151.477 11.5946C151.044 11.9676 150.419 12.1541 149.602 12.1541ZM163.84 17.9459H162.373V21.1821H160.483V13.1068H162.373V16.3732H163.885L166.275 13.1068H168.301L165.367 16.9932L168.498 21.1821H166.275L163.84 17.9459ZM172.692 13.0161C173.882 13.0161 174.789 13.3034 175.414 13.878C176.05 14.4426 176.367 15.2995 176.367 16.4488V21.1821H174.583V20.1991C174.351 20.552 174.018 20.8242 173.585 21.0157C173.161 21.1972 172.647 21.2879 172.042 21.2879C171.437 21.2879 170.908 21.1871 170.454 20.9855C170.001 20.7738 169.648 20.4864 169.396 20.1235C169.154 19.7505 169.033 19.3321 169.033 18.8684C169.033 18.1425 169.3 17.5628 169.834 17.1293C170.379 16.6857 171.231 16.4639 172.39 16.4639H174.477V16.343C174.477 15.7784 174.306 15.3449 173.963 15.0424C173.63 14.74 173.131 14.5888 172.466 14.5888C172.012 14.5888 171.563 14.6593 171.12 14.8005C170.686 14.9416 170.318 15.1382 170.016 15.3903L169.275 14.0141C169.698 13.6915 170.207 13.4445 170.802 13.2731C171.397 13.1018 172.027 13.0161 172.692 13.0161ZM172.435 19.9118C172.909 19.9118 173.328 19.8059 173.691 19.5942C174.064 19.3724 174.326 19.0599 174.477 18.6567V17.7191H172.526C171.437 17.7191 170.893 18.077 170.893 18.7928C170.893 19.1355 171.029 19.4077 171.301 19.6094C171.573 19.811 171.951 19.9118 172.435 19.9118ZM178.706 13.1068H180.597V16.3883H184.664V13.1068H186.555V21.1821H184.664V17.9913H180.597V21.1821H178.706V13.1068ZM197.708 19.5791V22.9816H195.938V21.1821H189.708V22.9816H187.954V19.5791H188.332C188.846 19.5589 189.194 19.2313 189.375 18.5962C189.567 17.951 189.693 17.0436 189.753 15.8742L189.859 13.1068H196.513V19.5791H197.708ZM191.477 16.0103C191.437 16.9378 191.361 17.6939 191.251 18.2786C191.14 18.8633 190.938 19.2968 190.646 19.5791H194.623V14.7098H191.523L191.477 16.0103ZM199.396 13.1068H201.286V18.4298L205.747 13.1068H207.471V21.1821H205.581V15.859L201.135 21.1821H199.396V13.1068ZM218.634 19.5791V22.9816H216.864V21.1821H210.634V22.9816H208.88V19.5791H209.258C209.772 19.5589 210.12 19.2313 210.301 18.5962C210.493 17.951 210.619 17.0436 210.679 15.8742L210.785 13.1068H217.439V19.5791H218.634ZM212.403 16.0103C212.363 16.9378 212.287 17.6939 212.176 18.2786C212.066 18.8633 211.864 19.2968 211.572 19.5791H215.549V14.7098H212.449L212.403 16.0103ZM223.331 13.0161C224.521 13.0161 225.428 13.3034 226.053 13.878C226.688 14.4426 227.006 15.2995 227.006 16.4488V21.1821H225.222V20.1991C224.99 20.552 224.657 20.8242 224.223 21.0157C223.8 21.1972 223.286 21.2879 222.681 21.2879C222.076 21.2879 221.547 21.1871 221.093 20.9855C220.64 20.7738 220.287 20.4864 220.035 20.1235C219.793 19.7505 219.672 19.3321 219.672 18.8684C219.672 18.1425 219.939 17.5628 220.473 17.1293C221.018 16.6857 221.869 16.4639 223.029 16.4639H225.116V16.343C225.116 15.7784 224.944 15.3449 224.602 15.0424C224.269 14.74 223.77 14.5888 223.104 14.5888C222.651 14.5888 222.202 14.6593 221.759 14.8005C221.325 14.9416 220.957 15.1382 220.655 15.3903L219.914 14.0141C220.337 13.6915 220.846 13.4445 221.441 13.2731C222.036 13.1018 222.666 13.0161 223.331 13.0161ZM223.074 19.9118C223.548 19.9118 223.966 19.8059 224.329 19.5942C224.702 19.3724 224.964 19.0599 225.116 18.6567V17.7191H223.165C222.076 17.7191 221.532 18.077 221.532 18.7928C221.532 19.1355 221.668 19.4077 221.94 19.6094C222.212 19.811 222.59 19.9118 223.074 19.9118ZM235.742 14.7098H232.914V21.1821H231.024V14.7098H228.181V13.1068H235.742V14.7098Z" fill="black"/>
<path d="M99.5918 22.8859C99.5918 23.4001 99.3876 23.8932 99.024 24.2568C98.6604 24.6204 98.1673 24.8247 97.6531 24.8247C97.1389 24.8247 96.6458 24.6204 96.2822 24.2568C95.9186 23.8932 95.7144 23.4001 95.7144 22.8859C95.7144 22.3717 95.9186 21.8786 96.2822 21.515C96.6458 21.1514 97.1389 20.9472 97.6531 20.9472C98.1673 20.9472 98.6604 21.1514 99.024 21.515C99.3876 21.8786 99.5918 22.3717 99.5918 22.8859ZM99.5918 16.4234C99.5918 16.9376 99.3876 17.4307 99.024 17.7943C98.6604 18.1579 98.1673 18.3622 97.6531 18.3622C97.1389 18.3622 96.6458 18.1579 96.2822 17.7943C95.9186 17.4307 95.7144 16.9376 95.7144 16.4234C95.7144 15.9092 95.9186 15.4161 96.2822 15.0525C96.6458 14.6889 97.1389 14.4847 97.6531 14.4847C98.1673 14.4847 98.6604 14.6889 99.024 15.0525C99.3876 15.4161 99.5918 15.9092 99.5918 16.4234ZM99.5918 9.96093C99.5918 10.4751 99.3876 10.9682 99.024 11.3318C98.6604 11.6954 98.1673 11.8997 97.6531 11.8997C97.1389 11.8997 96.6458 11.6954 96.2822 11.3318C95.9186 10.9682 95.7144 10.4751 95.7144 9.96093C95.7144 9.44675 95.9186 8.95362 96.2822 8.59003C96.6458 8.22645 97.1389 8.02219 97.6531 8.02219C98.1673 8.02219 98.6604 8.22645 99.024 8.59003C99.3876 8.95362 99.5918 9.44675 99.5918 9.96093Z" fill="black"/>
<path d="M15.0152 20.4611L14.995 12.9806L11.3657 19.0698H9.59137L5.96203 13.1419V20.4611H2.29237V6.34698H5.57894L10.539 14.4928L15.3781 6.34698H18.6647L18.705 20.4611H15.0152ZM28.6432 20.7433C27.1511 20.7433 25.8069 20.4275 24.6106 19.7957C23.4277 19.1639 22.4935 18.2902 21.8079 17.1745C21.1358 16.0588 20.7998 14.802 20.7998 13.404C20.7998 12.0061 21.1358 10.7492 21.8079 9.63354C22.4935 8.51786 23.4277 7.64413 24.6106 7.01236C25.8069 6.38058 27.1511 6.0647 28.6432 6.0647C30.1352 6.0647 31.4727 6.38058 32.6556 7.01236C33.8519 7.64413 34.7862 8.51786 35.4583 9.63354C36.1438 10.7492 36.4866 12.0061 36.4866 13.404C36.4866 14.802 36.1438 16.0588 35.4583 17.1745C34.7862 18.2902 33.8519 19.1639 32.6556 19.7957C31.4727 20.4275 30.1352 20.7433 28.6432 20.7433ZM28.6432 17.4366C29.3556 17.4366 30.0008 17.2686 30.5788 16.9325C31.1568 16.5965 31.6138 16.126 31.9499 15.5211C32.2859 14.9028 32.454 14.1971 32.454 13.404C32.454 12.6109 32.2859 11.912 31.9499 11.3071C31.6138 10.6887 31.1568 10.2115 30.5788 9.8755C30.0008 9.53945 29.3556 9.37143 28.6432 9.37143C27.9307 9.37143 27.2855 9.53945 26.7075 9.8755C26.1295 10.2115 25.6725 10.6887 25.3364 11.3071C25.0004 11.912 24.8324 12.6109 24.8324 13.404C24.8324 14.1971 25.0004 14.9028 25.3364 15.5211C25.6725 16.126 26.1295 16.5965 26.7075 16.9325C27.2855 17.2686 27.9307 17.4366 28.6432 17.4366ZM38.6212 6.34698H42.5529V14.634L48.38 6.34698H52.1304V20.4611H48.1986V12.1942L42.3916 20.4611H38.6212V6.34698ZM45.3556 5.50014C43.9307 5.50014 42.8823 5.22457 42.2102 4.67345C41.5515 4.12233 41.2222 3.30237 41.2222 2.21357H43.9039C43.9173 2.68404 44.0383 3.03353 44.2668 3.26205C44.4953 3.49056 44.8582 3.60482 45.3556 3.60482C45.8529 3.60482 46.2226 3.49056 46.4646 3.26205C46.7065 3.03353 46.8342 2.68404 46.8477 2.21357H49.5293C49.5293 3.30237 49.1933 4.12233 48.5212 4.67345C47.8491 5.22457 46.7939 5.50014 45.3556 5.50014Z" fill="url(#paint0_linear)"/>
<path d="M62.7641 26.5015H79.2402C80.4937 26.5015 81.696 26.9995 82.5824 27.8859C83.4688 28.7723 83.9668 29.9746 83.9668 31.2282V33.1293C83.9668 34.2645 83.7214 35.3863 83.2475 36.4179C82.7736 37.4494 82.0824 38.3664 81.2211 39.1059C77.9314 41.9293 73.2258 43.3074 67.1546 43.3074H66.7786C67.0951 42.6694 67.2196 41.9533 67.1372 41.246C67.0548 40.5387 66.769 39.8704 66.3144 39.3223L66.0812 39.0702L61.3965 34.3982C62.7829 32.0137 63.2674 29.2109 62.762 26.4994L62.7641 26.5015ZM51.3992 19.149C53.1946 19.1494 54.9528 19.6611 56.4681 20.6242C57.9833 21.5874 59.193 22.9621 59.9555 24.5876C60.718 26.2131 61.0018 28.0221 60.7738 29.803C60.5457 31.5839 59.8152 33.2631 58.6677 34.644L64.5981 40.5554C64.8814 40.8358 65.048 41.2132 65.0641 41.6116C65.0802 42.0099 64.9447 42.3996 64.685 42.702C64.4252 43.0044 64.0604 43.197 63.6642 43.2412C63.268 43.2853 62.8698 43.1776 62.5499 42.9397L62.3713 42.7864L56.2729 36.7027C55.0242 37.4538 53.6188 37.9062 52.1665 38.0244C50.7141 38.1426 49.2541 37.9234 47.9004 37.384C46.5467 36.8446 45.3361 35.9996 44.363 34.9149C43.3899 33.8302 42.6808 32.5353 42.291 31.1312C41.9011 29.7272 41.8412 28.252 42.1158 26.8209C42.3903 25.3899 42.992 24.0416 43.8739 22.8816C44.7557 21.7215 45.8937 20.781 47.1992 20.1335C48.5046 19.486 49.942 19.1491 51.3992 19.149ZM51.3992 22.3001C49.7277 22.3001 48.1247 22.964 46.9429 24.1459C45.761 25.3278 45.097 26.9308 45.097 28.6023C45.097 30.2737 45.761 31.8767 46.9429 33.0586C48.1247 34.2405 49.7277 34.9044 51.3992 34.9044C53.0706 34.9044 54.6736 34.2405 55.8555 33.0586C57.0374 31.8767 57.7014 30.2737 57.7014 28.6023C57.7014 26.9308 57.0374 25.3278 55.8555 24.1459C54.6736 22.964 53.0706 22.3001 51.3992 22.3001ZM67.1546 1.30118C69.9404 1.30118 72.612 2.40781 74.5819 4.37762C76.5517 6.34744 77.6583 9.01908 77.6583 11.8048C77.6583 14.5906 76.5517 17.2622 74.5819 19.232C72.612 21.2018 69.9404 22.3085 67.1546 22.3085C64.3689 22.3085 61.6973 21.2018 59.7274 19.232C57.7576 17.2622 56.651 14.5906 56.651 11.8048C56.651 9.01908 57.7576 6.34744 59.7274 4.37762C61.6973 2.40781 64.3689 1.30118 67.1546 1.30118Z" fill="black"/>
<defs>
<linearGradient id="paint0_linear" x1="-4.18183" y1="0.46106" x2="65.1036" y2="24.1483" gradientUnits="userSpaceOnUse">
<stop stop-color="#2300AD"/>
<stop offset="1"/>
</linearGradient>
</defs>
</svg>
